<svg version="1.1" xmlns="http://www.w3.org/2000/svg" xmlns:xlink="http://www.w3.org/1999/xlink" width="186" height="94.66667" viewBox="0,0,186,94.66667"><g transform="translate(-437.38335,-0.95001)"><g data-paper-data="{&quot;isPaintingLayer&quot;:true}" fill-rule="nonzero" stroke="none" stroke-linecap="butt" stroke-linejoin="miter" stroke-miterlimit="10" stroke-dasharray="" stroke-dashoffset="0" style="mix-blend-mode: normal"><path d="M437.38335,95.61667v-94.66667h186v94.66667z" fill="#ff5b00" stroke-width="0"/><path d="M444.46924,90.38311c-1.1094,-1.64099 0.5547,-2.73498 0.5547,-2.73498l0.57296,-0.279c1.88233,-2.22692 3.42969,-5.3429 5.42794,-7.33569c0.77273,-0.77063 1.93053,-1.06077 2.77875,-1.74988c1.92947,-1.56755 3.52873,-4.38832 5.07515,-6.33527c3.95921,-7.10086 10.16956,-13.10301 15.36709,-19.40045c4.4518,-5.39391 8.49816,-11.03267 12.59622,-16.67284c3.45482,-4.75487 7.19032,-9.26816 9.83577,-14.52342c0,0 0.01248,-0.02461 0.03745,-0.06658c0.03804,-0.18452 0.1064,-0.38146 0.21255,-0.59083c0.89443,-1.764 2.68328,-0.88201 2.68328,-0.88201l1.6883,0.88137c1.03438,0.85434 2.45235,1.11462 3.64012,1.74584c3.50709,1.86379 6.29142,4.99865 9.78072,6.96324c2.99735,1.6876 6.25724,2.45819 9.34362,3.82856c6.94276,3.08262 12.27247,8.16022 18.43686,12.34817c5.11234,3.47321 10.58864,4.95591 15.29224,9.17587c7.96017,3.23675 15.13352,8.21675 22.56663,12.43299c11.28279,6.39987 23.56292,11.32151 33.63747,19.59973c0,0 1.53644,1.26259 0.25607,2.77769c-1.28037,1.5151 -2.81681,0.25251 -2.81681,0.25251c-9.87204,-8.11307 -21.96191,-12.92471 -33.0292,-19.18731c-7.51794,-4.25414 -14.74727,-9.1807 -22.75495,-12.54363c-4.77578,-4.18918 -10.21756,-5.73664 -15.38619,-9.2364c-4.10519,-2.77969 -7.61817,-6.24624 -11.90817,-8.81752c-4.11346,-2.46547 -8.494,-3.80197 -12.81012,-5.8184c-4.60168,-2.14983 -7.98699,-5.95576 -12.38719,-8.24264c-1.15174,-0.59859 -2.419,-1.01376 -3.53949,-1.65756c-2.70378,4.9356 -6.21145,9.29355 -9.52972,13.86083c-4.14259,5.70188 -8.23691,11.40252 -12.73711,16.85494c-5.09919,6.17815 -11.29583,12.08898 -15.13039,19.08072c-1.74735,2.22584 -3.57527,5.30362 -5.7607,7.11874c-0.76297,0.63368 -1.84449,0.84627 -2.55458,1.53715c-1.92898,1.87678 -3.42177,4.97674 -5.23872,7.12728l-1.42704,1.03581c0,0 -1.6641,1.09399 -2.7735,-0.547z" fill="#000000" stroke-width="0.5"/><path d="M570.02782,6.18921c3.08879,-1.1233 6.26586,-2.10007 9.49776,-1.33865c7.23862,1.70541 16.86269,9.64742 14.8741,17.8892c-0.36819,1.526 -2.77044,4.32665 -3.4697,5.61955c-0.36118,0.6678 -0.32098,1.52316 -0.762,2.14258c-1.84579,2.5925 -4.84486,4.30367 -7.32143,6.23177c-3.01271,1.328 -7.17793,3.14551 -10.6569,1.84099c-1.91486,-0.71802 -3.07107,-2.69385 -4.77444,-3.81621c-2.67621,-1.76336 -6.09456,-2.63585 -7.43538,-6.11962c-1.05227,-2.73403 -0.84258,-4.93253 -0.84649,-7.7201c-0.00824,-5.88025 0.10177,-11.97019 6.56797,-14.31284l1.87094,-0.92803c0,0 1.51705,-0.74798 2.45557,0.51132zM564.91276,11.55176c-2.20222,2.20141 -1.77474,6.23453 -1.77942,9.36698c-0.00524,3.50618 -0.04926,6.24087 2.6849,8.7361c1.0037,0.91599 2.56135,1.00117 3.69989,1.74828c3.26164,2.14026 3.72331,4.37444 8.21367,3.35531c1.08256,-0.2457 2.01444,-0.92406 3.02166,-1.38608c2.80063,-2.24534 4.92749,-3.68459 6.58324,-6.74603c0.9267,-1.71344 2.6825,-3.02451 3.19696,-4.89897c1.58891,-5.78919 -7.02945,-11.85419 -11.79257,-13.00895c-4.08993,-0.99155 -8.62491,1.85749 -12.39166,2.92075c0,0 -0.74258,0.20922 -1.43669,-0.0874z" fill="#000000" stroke-width="0.5"/><path d="M486.70001,65.26088c0,-1.97222 2,-1.97222 2,-1.97222l1.23281,0.04697c6.88445,-1.48281 13.84402,-0.95177 20.79876,-1.22094c0.10137,-2.79792 0.21664,-5.60003 0.30246,-8.41028c0.11057,-3.62076 -0.64636,-6.90523 -0.66736,-10.46667c0,0 0,-1.97222 2,-1.97222c2,0 2,1.97222 2,1.97222c-0.02587,3.55627 0.7767,6.93118 0.66598,10.57036c-0.08175,2.68704 -0.19339,5.36691 -0.29415,8.04293c0.37444,-0.03666 0.74882,-0.07721 1.12313,-0.1221c6.06981,-0.72784 11.71032,-2.38471 17.83837,-2.38471c0,0 2,0 2,1.97222c0,1.97222 -2,1.97222 -2,1.97222c-5.94783,0 -11.45233,1.65492 -17.35794,2.35615c-0.57966,0.06883 -1.15976,0.12672 -1.7402,0.17542c-0.18268,6.10113 -0.20369,12.19091 0.42155,18.30921l0.00993,1.18236c0,0 0,1.97222 -2,1.97222c-2,0 -2,-1.97222 -2,-1.97222l0.00993,-0.78987c-0.62219,-6.18041 -0.61415,-12.32962 -0.44018,-18.49014c-6.62769,0.18093 -13.27314,-0.30479 -19.80255,1.15433l-2.10053,0.04697c0,0 -2,0 -2,-1.97222z" fill="#000000" stroke-width="0.5"/></g></g></svg>